<?xml version="1.0" standalone="no"?>
<!DOCTYPE svg PUBLIC "-//W3C//DTD SVG 20010904//EN"
 "http://www.w3.org/TR/2001/REC-SVG-20010904/DTD/svg10.dtd">
<svg version="1.0" xmlns="http://www.w3.org/2000/svg"
 width="478.000000pt" height="478.000000pt" viewBox="0 0 478.000000 478.000000"
 preserveAspectRatio="xMidYMid meet">
<metadata>
Created by potrace 1.11, written by Peter Selinger 2001-2013
</metadata>
<g transform="translate(0.000000,478.000000) scale(0.100000,-0.100000)"
fill="#000000" stroke="none">
<path d="M390 4764 c-30 -8 -80 -26 -110 -41 -72 -35 -188 -151 -223 -223 -61
-126 -57 6 -57 -2110 0 -2116 -4 -1984 57 -2110 58 -121 214 -240 351 -269 75
-16 3889 -16 3964 0 189 39 358 208 397 397 8 38 11 613 11 1985 0 2113 4
1981 -57 2107 -35 72 -151 188 -223 223 -126 61 7 57 -2115 56 -1667 0 -1948
-2 -1995 -15z"/>
</g>
</svg>
